<svg xmlns="http://www.w3.org/2000/svg" clip-path="url(#clip0)">
<path d="M193 260c-3-5-1-11 4-13l140-78c4-3 10-1 13 3l78 140c3 5 1 11-4 14l-139 78c-5 2-11 1-14-4l-78-140z" fill="#673AB7"/>
<path d="M1388 159c-3-5-1-11 4-14l139-78c5-3 11-1 14 4l78 139c3 5 1 11-4 14l-139 78c-5 3-11 1-14-4l-78-139z" fill="#673AB7"/>
<path d="M508 437c-3-5-1-11 4-14l105-59c5-3 11-1 14 4l59 105c3 5 1 11-4 14l-105 59c-5 3-11 1-14-4l-59-105z" fill="#673AB7"/>
<path d="M1272 419c-3-5-1-11 4-14l105-59c5-3 11-1 14 4l59 105c3 5 1 11-4 14l-105 59c-5 3-11 1-14-4l-59-105z" fill="#004169"/>
<path d="M1341 146c-3-5-1-11 4-13l65-37c5-3 11-1 14 4l37 65c2 5 1 11-4 14l-66 37c-5 2-11 1-13-4l-37-66z" fill="#023E64"/>
<path d="M358 306c-3-5-1-11 4-13l65-37c5-3 11-1 14 4l37 65c2 5 1 11-4 14l-66 37c-5 2-11 1-13-4l-37-66z" fill="#024A77"/>
<path d="M276 76c-3-5-1-11 4-14l53-30c5-3 11-1 14 4l30 53c3 5 1 11-4 14l-53 30c-5 3-11 1-14-4l-30-53z" fill="#673AB7"/>
<path d="M-52 235c-3-5-1-11 4-14l139-78c5-3 11-1 14 4l78 139c3 5 1 11-4 14L40 378c-5 3-11 1-14-4l-78-139z" fill="#004875"/>
<path d="M1145 386c-3-5-1-11 4-13l112-63c4-3 11-1 13 4l63 112c3 4 1 11-4 13l-112 63c-5 3-11 1-13-4l-63-112z" fill="#014B78"/>
</svg>